<svg width="402" height="78" viewBox="0 0 402 78" fill="none" xmlns="http://www.w3.org/2000/svg">
<path d="M136.881 46.1453C136.881 55.1494 130.807 60.3662 117.372 60.3662C102.079 60.3662 94.2184 53.2914 94.2184 40.6427H100.793C100.793 50.29 106.438 54.8636 117.515 54.8636C126.233 54.8636 130.307 52.0766 130.307 46.5026C130.307 42.5722 127.734 39.5708 121.874 38.0701L107.796 34.4255C99.8638 32.3531 96.5766 27.7796 96.5766 21.7768C96.5766 13.0584 102.865 8.41342 114.442 8.41342C128.163 8.41342 135.38 14.9879 135.38 25.8501H128.734C128.734 17.8464 123.946 13.8445 114.442 13.8445C107.081 13.8445 103.151 16.3457 103.151 21.4909C103.151 25.064 105.295 27.7796 110.798 29.2088L124.733 32.7104C132.879 34.7828 136.881 39.4993 136.881 46.1453ZM139.006 59.5801V54.149H148.939V12.4867H141.507V7.05564H151.583C153.942 7.05564 155.3 8.27049 155.3 10.6287V54.149H165.233V59.5801H139.006ZM166.432 41.3573C166.432 29.852 173.293 23.3489 183.44 23.3489C193.945 23.3489 200.805 29.709 200.805 40.7142V43.0009H172.578C172.792 49.9327 176.437 55.2209 183.797 55.2209C189.872 55.2209 193.445 52.0766 194.66 47.1457H200.948C199.519 53.7202 194.803 60.2947 183.869 60.2947C172.292 60.2947 166.432 51.8622 166.432 41.3573ZM172.649 38.4988H194.588C194.159 32.0673 189.8 28.3513 183.44 28.3513C177.58 28.3513 173.15 32.0673 172.649 38.4988ZM205.429 41.3573C205.429 29.852 212.29 23.3489 222.437 23.3489C232.942 23.3489 239.803 29.709 239.803 40.7142V43.0009H211.575C211.789 49.9327 215.434 55.2209 222.795 55.2209C228.869 55.2209 232.442 52.0766 233.657 47.1457H239.945C238.516 53.7202 233.8 60.2947 222.866 60.2947C211.289 60.2947 205.429 51.8622 205.429 41.3573ZM211.647 38.4988H233.585C233.157 32.0673 228.797 28.3513 222.437 28.3513C216.577 28.3513 212.147 32.0673 211.647 38.4988ZM245.577 59.5801V7.05564H251.937V38.6418H255.796L269.373 24.0636H277.306L261.084 41.2859L277.163 59.5801H269.231L255.51 43.787H251.937V59.5801H245.577ZM321.329 46.1453C321.329 55.1494 315.255 60.3662 301.82 60.3662C286.527 60.3662 278.667 53.2914 278.667 40.6427H285.241C285.241 50.29 290.887 54.8636 301.963 54.8636C310.681 54.8636 314.755 52.0766 314.755 46.5026C314.755 42.5722 312.182 39.5708 306.322 38.0701L292.244 34.4255C284.312 32.3531 281.025 27.7796 281.025 21.7768C281.025 13.0584 287.313 8.41342 298.89 8.41342C312.611 8.41342 319.829 14.9879 319.829 25.8501H313.183C313.183 17.8464 308.395 13.8445 298.89 13.8445C291.53 13.8445 287.599 16.3457 287.599 21.4909C287.599 25.064 289.743 27.7796 295.246 29.2088L309.181 32.7104C317.327 34.7828 321.329 39.4993 321.329 46.1453ZM326.432 59.5801V7.05564H332.792V38.6418H336.651L350.229 24.0636H358.161L341.94 41.2859L358.018 59.5801H350.086L336.366 43.787H332.792V59.5801H326.432ZM395.948 24.0636V69.0845C395.948 71.943 394.375 73.4437 391.017 73.4437H363.861V68.0126H389.588V53.6487L390.659 49.361H388.873C387.444 55.7926 382.942 60.2947 375.224 60.2947C367.149 60.2947 361.86 55.5782 361.86 45.5736V24.0636H368.149V44.716C368.149 52.0766 371.007 54.8636 377.01 54.8636C384.442 54.8636 389.588 49.2181 389.588 39.6422V24.0636H395.948Z" fill="#081E54"/>
<g clip-path="url(#clip0_256_30)">
<path d="M16.8088 30.8889C16.1731 33.5468 16.5785 35.7642 17.8749 37.8065C19.6519 40.6095 22.7703 42.2714 26.0839 42.4115C28.5166 42.5116 30.9743 42.4165 33.7473 42.4165C32.2657 44.2385 31.0393 45.7802 29.773 47.2868C26.8848 50.7356 24.0016 54.1894 21.0684 57.5981C20.3026 58.4891 19.4517 59.3751 18.4806 60.0208C15.3872 62.078 11.7733 61.3622 8.96017 58.0987C0.475886 48.2679 -2.02185 37.0106 1.63215 24.597C5.67157 10.887 18.2253 1.08628 32.581 0.0151094C33.9375 -0.0850001 35.1438 0.23535 35.8496 1.51175C36.5854 2.8382 36.205 4.13462 35.339 5.19578C30.9843 10.5116 26.5644 15.7774 22.1947 21.0732C21.4689 21.9541 20.693 22.8451 20.2075 23.8612C18.2754 27.8806 21.1886 32.5557 25.8086 32.781C29.9531 32.9812 34.1127 32.9061 38.2572 32.9411C40.1243 32.9562 41.9913 32.8961 43.8584 32.831C48.5435 32.6558 51.1714 34.2426 52.9783 38.4121C53.7592 36.8855 53.3888 33.9823 52.1274 31.9651C50.2003 28.8817 47.3772 27.3 43.7683 27.1898C41.3506 27.1148 38.933 27.1748 36.17 27.1748C37.5965 25.4279 38.8179 23.8962 40.0792 22.3896C43.0775 18.8157 46.0708 15.2368 49.1141 11.6979C49.8249 10.872 50.6358 10.0661 51.5568 9.50049C54.6402 7.60341 58.0339 8.33421 60.8119 11.3575C70.7678 22.1994 72.79 38.6474 65.5271 51.4914C59.3553 62.4084 49.7648 68.2348 37.3813 69.6063C35.8096 69.7815 34.5282 69.1708 34.0126 68.0746C33.3218 66.613 33.7924 65.3566 34.7484 64.2003C39.3935 58.5742 44.0436 52.948 48.6937 47.3219C50.4256 45.2246 50.871 42.907 49.6297 40.4494C48.4184 38.0417 46.3461 36.8204 43.6632 36.8054C37.8468 36.7653 32.0254 36.7053 26.2141 36.8204C21.8443 36.9055 18.5056 35.544 16.8238 30.8839L16.8088 30.8889Z" fill="#081E54"/>
<path d="M24.1818 26.5445C25.7335 24.6624 27.2802 22.7753 28.8419 20.8983C33.7522 15.0018 38.6826 9.12039 43.558 3.1939C44.1837 2.43307 44.7443 2.26288 45.6052 2.6483C46.6013 3.09379 47.6274 3.4692 48.8037 3.94472C47.1319 5.97695 45.5552 7.89404 43.9734 9.81114C39.4485 15.3122 34.9135 20.8032 30.4086 26.3192C29.903 26.9399 29.3774 27.2252 28.5816 27.1751C27.185 27.085 25.7785 27.055 24.382 26.9999L24.1768 26.5445H24.1818Z" fill="#081E54"/>
<path d="M46.4257 43.0719C43.948 46.0502 41.14 48.673 38.6673 51.6513C34.5878 56.5617 30.4933 61.462 26.4439 66.4024C25.8332 67.1483 25.2726 67.3985 24.3766 66.9881C23.3655 66.5226 22.3194 66.1371 21.083 65.6366C22.2293 64.2451 23.2604 63.0037 24.2865 61.7523C29.4672 55.4504 34.6328 49.1385 39.8536 42.8717C40.224 42.4262 40.7295 42.1108 41.3151 42.0858C42.7467 42.0208 44.4886 41.8756 45.8301 42.5714C46.0437 42.7449 46.2422 42.9117 46.4257 43.0719Z" fill="#081E54"/>
</g>
<defs>
<clipPath id="clip0_256_30">
<rect width="69.8615" height="69.6412" fill="white"/>
</clipPath>
</defs>
</svg>
